HIERARCHY
ROOT Hips
{
  OFFSET -32.5998 29.0326 120.673
  CHANNELS 6 Xposition Yposition Zposition Zrotation Xrotation Yrotation
  JOINT LeftUpLeg
  {
    OFFSET 8.64259 1.95398 -2.38835
    CHANNELS 3 Zrotation Xrotation Yrotation
    JOINT LeftLeg
    {
      OFFSET 43.7702 0 0
      CHANNELS 3 Zrotation Xrotation Yrotation
      JOINT LeftFoot
      {
        OFFSET 40.6238 0 0
        CHANNELS 3 Zrotation Xrotation Yrotation
        JOINT LeftToeBase
        {
          OFFSET 12.7242 0 0
          CHANNELS 3 Zrotation Xrotation Yrotation
          End Site
          {
            OFFSET 0 0 0
          }
        }
      }
    }
  }
  JOINT RightUpLeg
  {
    OFFSET -8.2249 1.95398 -2.59336
    CHANNELS 3 Zrotation Xrotation Yrotation
    JOINT RightLeg
    {
      OFFSET 43.5653 0 0
      CHANNELS 3 Zrotation Xrotation Yrotation
      JOINT RightFoot
      {
        OFFSET 40.6238 0 0
        CHANNELS 3 Zrotation Xrotation Yrotation
        JOINT RightToeBase
        {
          OFFSET 12.7242 0 0
          CHANNELS 3 Zrotation Xrotation Yrotation
          End Site
          {
            OFFSET 0 0 0
          }
        }
      }
    }
  }
  JOINT Spine
  {
    OFFSET 0.165834 0.87714 6.61349
    CHANNELS 3 Zrotation Xrotation Yrotation
    JOINT Spine1
    {
      OFFSET 7.38963 1.71661e-005 0
      CHANNELS 3 Zrotation Xrotation Yrotation
      JOINT Spine2
      {
        OFFSET 11.9445 1.14441e-005 0
        CHANNELS 3 Zrotation Xrotation Yrotation
        JOINT Spine3
        {
          OFFSET 14.7254 4.19617e-005 0
          CHANNELS 3 Zrotation Xrotation Yrotation
          JOINT Spine4
          {
            OFFSET 10.9679 0 0
            CHANNELS 3 Zrotation Xrotation Yrotation
            JOINT RightShoulder
            {
              OFFSET 2.46616 -1.6653 3.69651
              CHANNELS 3 Zrotation Xrotation Yrotation
              JOINT RightArm
              {
                OFFSET 13.0012 0 0
                CHANNELS 3 Zrotation Xrotation Yrotation
                JOINT RightForeArm
                {
                  OFFSET 28.7848 1.62311e-005 0
                  CHANNELS 3 Zrotation Xrotation Yrotation
                  JOINT RightHand
                  {
                    OFFSET 26.5688 1.62095e-005 0
                    CHANNELS 3 Zrotation Xrotation Yrotation
                    End Site
                    {
                      OFFSET 0 0 0
                    }
                  }
                }
              }
            }
            JOINT LeftShoulder
            {
              OFFSET 2.38034 -1.29275 -3.7523
              CHANNELS 3 Zrotation Xrotation Yrotation
              JOINT LeftArm
              {
                OFFSET 16.3182 6.07031e-005 0
                CHANNELS 3 Zrotation Xrotation Yrotation
                JOINT LeftForeArm
                {
                  OFFSET 27.0901 0 0
                  CHANNELS 3 Zrotation Xrotation Yrotation
                  JOINT LeftHand
                  {
                    OFFSET 24.5451 1.51738e-005 0
                    CHANNELS 3 Zrotation Xrotation Yrotation
                    End Site
                    {
                      OFFSET 0 0 0
                    }
                  }
                }
              }
            }
            JOINT Neck
            {
              OFFSET 5.0226 -0.0266342 0
              CHANNELS 3 Zrotation Xrotation Yrotation
              JOINT Head
              {
                OFFSET 6.69364 2.86102e-005 0
                CHANNELS 3 Zrotation Xrotation Yrotation
                End Site
                {
                  OFFSET 0 0 0
                }
              }
            }
          }
        }
      }
    }
  }
}
MOTION
Frames:	15
Frame Time:	0.0416667
14.9376 101.187 18.2624 172.918 -81.0931 171.661 -173.704 -6.308 89.8136 -12.1335 12.0503 0.428859 70.9139 6.49122 -2.64869 17.1562 -9.97083 8.91027 171.592 -7.49883 87.8211 -12.4855 -8.62153 -0.65188 68.8939 -5.01404 1.8961 26.3146 0.303824 3.01309 0.143147 7.90799 -90.0851 11.0581 0.245563 -0.192907 -0.612857 0.23683 -0.203534 -23.1481 0.29218 -0.110192 -3.13546 0.292181 -0.11019 90.9646 -27.6542 -105.706 42.885 -20.0908 -5.4581 -13.0301 -15.4623 -23.9797 -10.0557 -0.191928 -3.09783 -88.0943 -49.0729 81.4113 -19.8269 33.7042 -14.2417 6.51309 -1.77273 -13.1523 -0.810666 -0.0739208 -3.09279 0.560732 -2.79219 -2.35077 -6.88036 -2.46653 1.34132 
14.996 101.189 18.3378 173.433 -81.0419 172.155 -173.752 -6.54628 89.7268 -11.9778 11.7714 0.468486 71.0959 6.58825 -2.80236 16.7151 -10.0159 8.56472 171.658 -7.47148 87.7447 -12.9119 -11.2394 -0.849477 67.8563 -4.4396 1.13796 28.3292 0.0848694 0.485986 0.159992 7.90736 -90.0913 11.0594 0.276162 -0.20836 -0.611529 0.266723 -0.220314 -23.1469 0.326014 -0.115729 -3.13422 0.326009 -0.115731 90.9496 -27.6203 -105.75 42.8846 -19.6485 -5.31131 -13.4594 -16.1161 -24.4153 -11.0551 -0.145204 -3.82194 -88.2391 -49.3003 81.2343 -19.7396 33.1451 -14.6394 6.55637 -1.41734 -12.2393 -0.522062 -0.0739035 -3.33135 0.862868 -2.59919 -1.41216 -7.53743 -2.35855 -0.214999 
14.9798 101.185 18.4052 173.231 -81.1501 171.836 -173.824 -6.60877 89.5865 -11.7507 11.8996 0.469696 71.0194 6.61461 -2.55482 16.9687 -9.95436 8.70248 171.611 -7.25463 87.6352 -13.1799 -10.8142 -0.859546 68.1955 -4.5704 1.42525 28.0704 0.154074 0.659325 0.145254 7.89711 -90.0983 11.0798 0.243566 -0.21922 -0.591096 0.233688 -0.229735 -23.1264 0.298193 -0.135885 -3.11372 0.298194 -0.135886 90.9311 -27.3126 -105.906 43.0994 -19.3498 -5.23766 -13.558 -16.4838 -24.4512 -12.03 -0.247444 -2.87708 -88.2469 -49.603 81.2795 -19.5168 33.2997 -14.6002 6.55569 -1.71304 -12.542 -0.751407 -0.0739026 -3.34373 1.04759 -2.5122 -1.18428 -7.75753 -2.30498 -0.155941 
14.9845 101.181 18.4803 172.272 -81.1959 170.81 -173.885 -6.64819 89.5104 -11.6559 11.8992 0.503461 71.0708 6.62303 -2.63888 16.9211 -9.97132 8.6856 171.562 -7.35594 87.5871 -12.9457 -10.9054 -0.842542 68.1206 -4.62586 0.982358 28.2834 -0.0441178 1.07128 0.124597 7.90349 -90.1116 11.067 0.196312 -0.240941 -0.603994 0.18552 -0.249354 -23.1392 0.25965 -0.170809 -3.12651 0.259648 -0.170805 90.9965 -26.9708 -105.903 43.2141 -19.4879 -5.31113 -13.493 -16.3277 -24.2912 -11.1926 -0.147743 -3.80331 -88.2229 -49.9976 81.3888 -19.0664 33.3882 -14.7782 6.54699 -1.64589 -12.8032 -0.735341 -0.0739343 -2.89313 1.15933 -2.44975 -0.854273 -7.48357 -2.28594 -0.310188 
14.9913 101.182 18.5109 173.357 -81.3952 171.855 -174.045 -6.58754 89.3239 -11.4969 11.4362 0.610136 71.0421 6.5848 -2.71976 16.7914 -10.012 8.63095 171.519 -7.10393 87.5054 -13.086 -11.0991 -0.818058 68.1199 -4.58282 1.28508 28.2758 0.0684383 0.635611 0.138471 7.89245 -90.0993 11.0892 0.229616 -0.219787 -0.581785 0.21973 -0.229691 -23.117 0.285056 -0.140616 -3.10439 0.285057 -0.140619 90.956 -27.1981 -105.899 43.0481 -19.5674 -5.3024 -13.7532 -16.9504 -24.5387 -11.4164 -0.224405 -3.00659 -88.0983 -49.7285 81.5264 -19.6284 32.8053 -14.758 6.72614 -1.38044 -12.6583 -0.762139 -0.0739141 -3.1875 1.55151 -2.52866 -0.974863 -8.10958 -2.3323 -0.499662 
14.9263 101.157 18.5637 175.153 -81.4762 173.568 -174 -6.66498 89.2972 -11.3986 11.4513 0.51961 71.0425 6.59655 -2.71067 16.9694 -10.1009 8.95261 171.609 -7.05865 87.496 -13.0449 -11.3046 -0.94649 68.1579 -4.62491 1.28134 28.4178 -0.0137763 0.712264 0.165065 7.90096 -90.0832 11.0722 0.290015 -0.193625 -0.598747 0.281212 -0.206207 -23.1341 0.334796 -0.0975107 -3.12148 0.334797 -0.0975163 90.8766 -27.4332 -105.973 43.0645 -19.1797 -5.43056 -14.4087 -18.1287 -24.8119 -10.8831 -0.167518 -3.53118 -88.1171 -49.7149 81.4956 -19.4088 33.1555 -14.8532 6.68529 -1.29049 -12.619 -0.568917 -0.0746396 -2.74926 1.40202 -2.57617 -1.39941 -7.52631 -2.34162 0.128783 
14.7776 101.162 18.6539 174.995 -81.5099 173.53 -173.813 -6.65088 89.6068 -11.3946 11.6049 0.451582 71.0347 6.61246 -2.75642 17.1712 -10.1328 9.20252 171.701 -7.15318 87.7302 -12.987 -11.2382 -0.894482 68.1808 -4.6971 0.804168 28.1596 -0.104484 1.52791 0.161299 7.89204 -90.0911 11.09 0.278806 -0.208272 -0.580918 0.269371 -0.22035 -23.1163 0.328512 -0.114849 -3.10362 0.32851 -0.114857 90.9186 -27.6139 -105.816 42.9683 -19.469 -5.30031 -14.4313 -18.0162 -25.0591 -10.5874 -0.182152 -3.32753 -88.1443 -49.5783 81.4295 -19.7705 32.9117 -14.5574 6.7278 -1.36784 -12.5084 -0.539784 -0.0755522 -2.89316 1.11528 -2.62458 -2.06717 -7.369 -2.32134 0.925342 
14.5923 101.166 18.7016 174.276 -81.6806 172.86 -173.557 -6.4106 89.9184 -11.4676 11.9279 0.242224 71.0018 6.59834 -2.76678 17.4012 -9.99561 9.18983 171.99 -7.05947 88.0575 -12.9833 -10.9175 -1.00839 68.2095 -4.68488 0.697882 28.2011 -0.0598346 1.27888 0.156035 7.88573 -90.0966 11.1026 0.265803 -0.218015 -0.568322 0.255955 -0.229518 -23.1036 0.319034 -0.128053 -3.09099 0.319035 -0.128061 90.8799 -27.7885 -105.829 42.7916 -19.5305 -5.21346 -14.2554 -17.6783 -25.0707 -11.2282 -0.206302 -3.16279 -88.1056 -49.3396 81.4436 -20.1151 32.8311 -14.5941 6.68124 -1.4359 -12.3198 -0.552459 -0.0732972 -3.16069 1.15508 -2.64197 -1.89065 -7.64049 -2.34644 0.384686 
14.3635 101.144 18.9238 172.414 -81.5846 171.159 -173.237 -6.50217 90.4148 -11.5656 12.7519 0.11332 71.08 6.73828 -2.32851 17.6243 -9.69863 8.89382 172.07 -7.41135 88.3352 -12.839 -10.2758 -0.886014 68.1655 -4.52369 1.36402 29.1242 -0.210841 0.230103 0.129985 7.89425 -90.135 11.0856 0.196122 -0.287706 -0.585398 0.183269 -0.296058 -23.1205 0.273513 -0.215465 -3.10787 0.273524 -0.215455 90.8799 -27.5402 -105.924 43.1207 -19.2107 -5.13833 -14.2882 -17.8455 -24.8892 -11.4364 -0.217679 -3.0814 -88.1165 -49.7776 81.5082 -19.3829 33.5427 -14.4405 6.63014 -1.48458 -12.9558 -0.470968 -0.0625254 -2.68254 1.07913 -2.62555 -1.80401 -7.60631 -2.35531 0.675329 
14.1913 101.137 19.0194 172.444 -81.7737 171.026 -173.291 -6.37863 90.3277 -11.5049 12.5522 0.137852 71.1156 6.70123 -2.71728 17.5825 -9.88904 9.18255 172.162 -7.29172 88.3863 -12.8481 -10.6747 -0.991443 68.2808 -4.75094 0.572636 28.0638 0.0472859 1.09462 0.132352 7.86737 -90.1015 11.1393 0.21636 -0.223008 -0.531623 0.20634 -0.232323 -23.0668 0.273378 -0.147673 -3.05421 0.273376 -0.147683 90.7317 -27.8663 -106.104 42.9048 -19.2664 -4.97025 -13.815 -17.0015 -24.659 -11.9963 -0.236627 -3.00198 -88.0001 -49.2546 81.5875 -20.199 33.0713 -14.2892 6.76485 -1.02671 -12.6996 -0.385904 -0.0662246 -2.95924 0.820377 -2.66542 -2.19558 -7.59824 -2.3553 1.04217 
13.9179 101.104 19.2 171.845 -81.9315 170.466 -173.117 -6.49637 90.6272 -11.2084 12.7594 0.0704254 71.3297 6.85375 -2.7315 17.3068 -9.96748 9.0502 172.391 -7.49611 88.661 -12.623 -9.96453 -1.00126 68.382 -4.68109 1.18027 28.315 -0.0309091 0.963188 0.139113 7.86026 -90.1107 11.1535 0.225505 -0.242361 -0.517468 0.214627 -0.252057 -23.0527 0.287919 -0.163379 -3.04004 0.287913 -0.163389 90.8995 -27.9055 -105.745 42.9926 -19.2466 -5.22469 -14.441 -18.2657 -24.8132 -10.7019 -0.17569 -3.40341 -87.8965 -49.0868 81.7136 -20.3375 32.9808 -14.4394 6.92814 -0.336809 -12.6969 -0.398203 -0.0598617 -2.60427 0.857991 -2.63755 -2.35516 -7.30971 -2.30939 1.29722 
13.5937 101.075 19.4253 172.033 -81.9202 170.618 -172.785 -6.64951 91.0128 -10.9886 12.6901 -0.107134 71.3442 6.78242 -3.155 17.7319 -9.59772 8.82241 172.471 -7.52147 88.8828 -12.7958 -10.1206 -1.01024 68.7666 -5.08153 0.368514 27.6541 0.0985888 1.59374 0.162052 7.8642 -90.131 11.1458 0.261746 -0.286301 -0.525199 0.248885 -0.29755 -23.0604 0.335686 -0.194402 -3.04779 0.335689 -0.194409 90.9168 -27.7843 -105.755 42.968 -19.0633 -5.1192 -14.5308 -18.1901 -24.976 -11.0863 -0.200344 -3.20356 -87.9692 -49.2658 81.6364 -20.2313 32.7387 -14.5223 6.94584 -0.472428 -12.6067 0.242764 -0.0457806 -2.38921 0.912041 -2.5833 -1.91447 -7.50739 -2.29547 0.561313 
13.0517 101.072 19.7554 170.734 -81.9881 169.553 -172.4 -6.88522 91.7521 -10.5717 13.2057 -0.130222 71.3629 6.74555 -3.46762 18.3262 -9.49043 9.21657 172.822 -7.78261 89.5464 -12.6782 -9.35785 -0.975491 69.0689 -5.15629 1.0896 27.2611 0.481224 0.789977 0.154962 7.84209 -90.1446 11.19 0.241254 -0.311516 -0.480991 0.227312 -0.321839 -23.0162 0.323724 -0.224605 -3.00352 0.323719 -0.224608 90.7053 -27.9349 -106.131 43.078 -18.9249 -5.09294 -13.6933 -16.5718 -24.3693 -11.1342 -0.224397 -2.95055 -88.0404 -49.1878 81.5144 -20.1948 32.6157 -14.196 7.03389 -0.311924 -12.7812 -1.05579 -0.0750988 -3.02738 0.682375 -2.64795 -1.82718 -7.45242 -2.36167 0.144157 
12.4607 101.048 20.1867 170.926 -81.893 169.461 -172.282 -7.67802 91.9186 -9.75643 13.3586 -0.081995 71.1462 6.66704 -3.52074 18.4632 -9.46772 9.31151 172.755 -8.33319 89.5766 -12.4199 -9.59906 -0.937763 69.3585 -5.45037 0.484281 26.9616 0.53477 1.09379 0.182354 7.845 -90.0896 11.1842 0.321324 -0.209914 -0.486781 0.311769 -0.223859 -23.0222 0.36955 -0.10364 -3.00956 0.369555 -0.103641 90.7224 -28.2049 -105.992 43.296 -19.0412 -5.26177 -13.4756 -15.9098 -24.3478 -11.263 -0.19851 -3.25423 -88.0271 -49.0559 81.5099 -20.2708 31.5836 -13.7317 7.36561 -0.113665 -13.0014 -1.06425 -0.0775502 -3.23954 0.109038 -2.55487 -2.01598 -6.87557 -2.26452 0.533234 
11.5728 100.954 20.6386 168.735 -81.7522 167.081 -171.809 -7.90515 92.5891 -9.68423 14.0495 -0.27045 71.2703 6.85605 -3.72161 19.1428 -9.10279 9.33995 173.041 -8.66051 90.1103 -12.5902 -8.78242 -0.984732 69.9567 -5.81692 0.0120972 26.4447 0.498129 2.06351 0.189733 7.8527 -90.0626 11.1689 0.348614 -0.158438 -0.50199 0.341296 -0.173629 -23.0375 0.380113 -0.0463398 -3.02488 0.380113 -0.0463419 90.6772 -27.9397 -106.187 43.8554 -19.1749 -5.23488 -13.715 -16.5279 -24.4425 -10.8958 -0.187111 -3.31614 -88.0409 -49.6117 81.5916 -19.3667 31.4802 -12.9935 7.29696 -1.45343 -13.9595 -1.03881 -0.077897 -3.41109 -0.228079 -2.40299 -1.31188 -7.00403 -2.21808 0.509486 
